<?xml version="1.0" standalone="no"?>
<!DOCTYPE svg PUBLIC "-//W3C//DTD SVG 20010904//EN"
 "http://www.w3.org/TR/2001/REC-SVG-20010904/DTD/svg10.dtd">
<svg version="1.0" xmlns="http://www.w3.org/2000/svg"
 width="988.000000pt" height="988.000000pt" viewBox="0 0 988.000000 988.000000"
 preserveAspectRatio="xMidYMid meet">
<metadata>
Created by potrace 1.14, written by Peter Selinger 2001-2017
</metadata>
<g transform="translate(0.000000,988.000000) scale(0.100000,-0.100000)"
fill="#000000" stroke="none">
<path d="M4717 9874 c-1 -1 -49 -5 -107 -9 -58 -3 -116 -8 -130 -9 -14 -2 -56
-7 -94 -11 -38 -4 -79 -9 -90 -10 -12 -2 -41 -6 -66 -9 -25 -3 -55 -8 -66 -10
-12 -2 -39 -7 -60 -11 -33 -5 -202 -38 -254 -50 -122 -28 -269 -68 -430 -118
-19 -6 -38 -11 -42 -11 -3 -1 -10 -4 -14 -8 -4 -5 -14 -8 -22 -8 -8 0 -28 -6
-45 -14 -18 -8 -63 -26 -102 -39 -239 -86 -615 -271 -840 -415 -151 -97 -183
-118 -270 -181 -49 -36 -113 -83 -141 -106 -28 -22 -65 -51 -84 -65 -18 -14
-40 -32 -50 -40 -10 -8 -44 -37 -76 -65 -133 -115 -294 -270 -409 -396 -61
-66 -214 -244 -241 -280 -10 -15 -46 -62 -78 -105 -102 -136 -130 -176 -196
-279 -34 -55 -71 -112 -81 -127 -11 -15 -19 -30 -19 -34 0 -3 -8 -18 -19 -32
-33 -48 -160 -289 -208 -397 -17 -38 -43 -95 -56 -125 -105 -231 -248 -676
-291 -900 -30 -161 -56 -303 -61 -340 -3 -25 -8 -56 -10 -70 -2 -14 -7 -56
-11 -95 -3 -38 -8 -78 -10 -90 -22 -109 -22 -795 0 -910 2 -11 7 -51 10 -90 4
-38 8 -81 10 -95 2 -14 7 -47 11 -73 4 -27 8 -57 10 -67 2 -9 6 -35 9 -56 3
-22 8 -50 11 -64 11 -54 16 -77 25 -120 6 -25 12 -57 15 -72 4 -30 61 -247 76
-293 108 -334 138 -416 216 -595 31 -70 173 -356 204 -410 63 -110 132 -226
159 -265 15 -22 48 -71 74 -110 65 -96 113 -164 144 -204 58 -74 157 -197 167
-207 5 -6 32 -37 60 -70 116 -137 435 -445 587 -566 35 -27 72 -58 84 -67 21
-19 124 -96 160 -121 481 -336 901 -545 1424 -706 200 -62 487 -130 630 -149
25 -3 52 -8 60 -10 8 -2 38 -6 65 -10 28 -3 64 -8 80 -10 39 -5 137 -16 184
-20 164 -16 448 -21 661 -11 132 6 164 8 285 22 33 3 74 8 90 9 50 5 118 16
152 25 17 4 34 6 36 4 2 -3 24 0 48 5 24 5 58 12 74 15 17 3 41 8 55 11 14 3
41 8 60 11 19 3 38 8 41 10 4 2 24 6 45 10 105 17 602 173 709 224 11 5 64 27
118 50 116 49 374 176 462 228 17 9 64 37 105 61 75 44 87 52 235 151 93 62
325 235 372 276 18 16 54 47 80 69 216 181 521 501 695 732 87 114 226 312
238 337 3 6 26 43 53 83 26 40 47 75 47 78 0 4 8 19 19 33 23 34 89 157 157
292 49 99 60 124 113 245 41 91 90 222 132 347 22 67 43 130 46 138 4 8 7 20
8 27 2 6 14 51 28 100 23 79 50 184 61 238 3 11 14 63 25 115 11 52 22 117 25
143 3 27 8 52 10 55 2 4 6 34 10 67 3 33 8 69 10 80 2 11 7 54 11 95 4 41 9
89 11 105 21 206 20 693 -1 861 -2 16 -6 61 -10 99 -4 39 -9 77 -10 86 -2 9
-6 40 -10 70 -3 30 -8 65 -11 79 -2 14 -6 36 -9 50 -3 14 -10 52 -16 85 -6 33
-12 65 -13 70 -2 6 -6 28 -11 50 -4 22 -14 65 -21 95 -8 30 -17 71 -20 90 -3
19 -8 38 -10 42 -3 4 -13 40 -24 80 -111 422 -348 946 -610 1345 -111 169
-287 406 -355 479 -5 6 -32 38 -60 70 -92 108 -347 367 -440 445 -22 19 -49
42 -60 53 -166 152 -548 423 -785 555 -89 50 -406 208 -470 235 -289 120 -604
225 -821 272 -41 9 -101 22 -135 29 -33 7 -76 16 -95 19 -19 3 -56 10 -84 15
-27 5 -74 12 -104 16 -30 4 -61 8 -70 10 -9 1 -45 6 -81 10 -36 3 -76 8 -90
10 -87 13 -692 29 -703 19z"/>
</g>
</svg>
